<svg width="32" height="35" viewBox="0 0 32 35" fill="none" xmlns="http://www.w3.org/2000/svg">
<path d="M16.1641 34.8555C15.1387 34.8555 14.2109 34.4453 13.3809 33.625C12.5605 32.8145 11.8525 31.6426 11.2568 30.1094C10.6709 28.5859 10.2217 26.7549 9.90918 24.6162C9.59668 22.4678 9.44043 20.0703 9.44043 17.4238C9.44043 14.7871 9.59668 12.4043 9.90918 10.2754C10.2217 8.14648 10.6709 6.3252 11.2568 4.81152C11.8525 3.28809 12.5605 2.12109 13.3809 1.31055C14.2109 0.490234 15.1387 0.0800781 16.1641 0.0800781C17.1895 0.0800781 18.1172 0.490234 18.9473 1.31055C19.7773 2.12109 20.4854 3.28809 21.0713 4.81152C21.667 6.3252 22.1211 8.14648 22.4336 10.2754C22.7461 12.4043 22.9023 14.7871 22.9023 17.4238C22.9023 20.0703 22.7461 22.4678 22.4336 24.6162C22.1211 26.7549 21.667 28.5859 21.0713 30.1094C20.4854 31.6426 19.7773 32.8145 18.9473 33.625C18.1172 34.4453 17.1895 34.8555 16.1641 34.8555ZM16.1641 33.1855C17.1699 33.1855 18.0439 32.5361 18.7861 31.2373C19.5283 29.9482 20.1045 28.1221 20.5146 25.7588C20.9346 23.3955 21.1445 20.6172 21.1445 17.4238C21.1445 14.25 20.9346 11.4912 20.5146 9.14746C20.1045 6.79395 19.5283 4.97266 18.7861 3.68359C18.0439 2.38477 17.1699 1.73535 16.1641 1.73535C15.1582 1.73535 14.2842 2.38477 13.542 3.68359C12.8096 4.97266 12.2383 6.79395 11.8281 9.14746C11.418 11.4912 11.2129 14.25 11.2129 17.4238C11.2129 20.6172 11.418 23.3955 11.8281 25.7588C12.2383 28.1221 12.8096 29.9482 13.542 31.2373C14.2842 32.5361 15.1582 33.1855 16.1641 33.1855ZM1.10547 26.1396C0.597656 25.251 0.490234 24.25 0.783203 23.1367C1.07617 22.0137 1.73535 20.8174 2.76074 19.5479C3.7959 18.2686 5.1582 16.96 6.84766 15.6221C8.54688 14.2744 10.5439 12.9316 12.8389 11.5938C15.124 10.2754 17.2676 9.2207 19.2695 8.42969C21.2812 7.63867 23.0879 7.12109 24.6895 6.87695C26.3008 6.62305 27.6631 6.65234 28.7764 6.96484C29.8994 7.26758 30.7197 7.86328 31.2373 8.75195C31.7451 9.65039 31.8525 10.6611 31.5596 11.7842C31.2666 12.9072 30.6074 14.1035 29.582 15.373C28.5664 16.6328 27.2139 17.9316 25.5244 19.2695C23.835 20.6074 21.8477 21.9307 19.5625 23.2393C17.2676 24.5771 15.1094 25.6465 13.0879 26.4473C11.0762 27.2383 9.26465 27.7607 7.65332 28.0146C6.04199 28.2686 4.6748 28.2441 3.55176 27.9414C2.42871 27.6289 1.61328 27.0283 1.10547 26.1396ZM2.55566 25.3047C3.05371 26.1738 4.04492 26.6084 5.5293 26.6084C7.02344 26.5986 8.89355 26.1787 11.1396 25.3486C13.3955 24.5186 15.9102 23.3027 18.6836 21.7012C21.4375 20.1191 23.7275 18.5664 25.5537 17.043C27.3896 15.5098 28.6787 14.1035 29.4209 12.8242C30.1631 11.5352 30.2852 10.4609 29.7871 9.60156C29.2793 8.73242 28.2832 8.29785 26.7988 8.29785C25.3145 8.29785 23.4492 8.70801 21.2031 9.52832C18.9668 10.3486 16.4766 11.5498 13.7324 13.1318C10.959 14.7432 8.64941 16.3154 6.80371 17.8486C4.96777 19.3818 3.67383 20.793 2.92188 22.082C2.17969 23.3613 2.05762 24.4355 2.55566 25.3047ZM31.2373 26.1396C30.7197 27.0283 29.8994 27.6289 28.7764 27.9414C27.6631 28.2441 26.2959 28.2686 24.6748 28.0146C23.0635 27.7607 21.252 27.2383 19.2402 26.4473C17.2285 25.6465 15.0703 24.5771 12.7656 23.2393C10.4805 21.9307 8.49316 20.6074 6.80371 19.2695C5.12402 17.9316 3.77148 16.6328 2.74609 15.373C1.7207 14.1035 1.06152 12.9072 0.768555 11.7842C0.475586 10.6611 0.587891 9.65039 1.10547 8.75195C1.62305 7.86328 2.43848 7.26758 3.55176 6.96484C4.66504 6.65234 6.02734 6.62305 7.63867 6.87695C9.25 7.12109 11.0566 7.63867 13.0586 8.42969C15.0605 9.2207 17.2041 10.2754 19.4893 11.5938C21.7939 12.9316 23.791 14.2744 25.4805 15.6221C27.1797 16.96 28.542 18.2686 29.5674 19.5479C30.5928 20.8174 31.252 22.0137 31.5449 23.1367C31.8477 24.25 31.7451 25.251 31.2373 26.1396ZM29.7871 25.3047C30.2852 24.4355 30.1582 23.3613 29.4062 22.082C28.6641 20.793 27.3701 19.3818 25.5244 17.8486C23.6885 16.3154 21.3838 14.7432 18.6104 13.1318C15.8564 11.5498 13.3613 10.3486 11.125 9.52832C8.88867 8.70801 7.02344 8.29785 5.5293 8.29785C4.04492 8.29785 3.05371 8.73242 2.55566 9.60156C2.05762 10.4609 2.17969 11.5352 2.92188 12.8242C3.66406 14.1035 4.94824 15.5098 6.77441 17.043C8.61035 18.5664 10.9053 20.1191 13.6592 21.7012C16.4326 23.3027 18.9424 24.5186 21.1885 25.3486C23.4346 26.1787 25.2998 26.5986 26.7842 26.6084C28.2783 26.6084 29.2793 26.1738 29.7871 25.3047ZM16.1787 20.6025C15.3096 20.6025 14.5674 20.2998 13.9521 19.6943C13.3467 19.0791 13.0439 18.3369 13.0439 17.4678C13.0439 16.6084 13.3467 15.8711 13.9521 15.2559C14.5674 14.6406 15.3096 14.333 16.1787 14.333C17.0479 14.333 17.7852 14.6406 18.3906 15.2559C19.0059 15.8711 19.3135 16.6084 19.3135 17.4678C19.3135 18.3369 19.0059 19.0791 18.3906 19.6943C17.7852 20.2998 17.0479 20.6025 16.1787 20.6025Z" fill="black"/>
</svg>
