<svg width="18" height="18" viewBox="0 0 18 18" fill="none" xmlns="http://www.w3.org/2000/svg">
<g clip-path="url(#clip0_39_285)">
<path d="M8.99127 0.611023C9.31466 0.611023 9.57631 0.713919 9.77622 0.919709C9.982 1.1255 10.0849 1.39597 10.0849 1.73111V12.1911L9.97025 15.2515L9.3176 14.8812L12.1046 11.7325L14.0979 9.75693C14.1977 9.65698 14.3124 9.5776 14.4418 9.5188C14.577 9.46 14.724 9.4306 14.8827 9.4306C15.1826 9.4306 15.4325 9.53056 15.6324 9.73047C15.8323 9.93038 15.9323 10.1832 15.9323 10.489C15.9323 10.7829 15.8176 11.0475 15.5883 11.2827L9.81149 17.0772C9.70566 17.1831 9.57924 17.2653 9.43225 17.3242C9.29114 17.3829 9.14415 17.4123 8.99127 17.4123C8.84428 17.4123 8.69729 17.3829 8.55029 17.3242C8.40918 17.2653 8.28571 17.1831 8.17987 17.0772L2.40305 11.2827C2.17374 11.0475 2.05908 10.7829 2.05908 10.489C2.05908 10.1832 2.15904 9.93038 2.35895 9.73047C2.55886 9.53056 2.80874 9.4306 3.10861 9.4306C3.26736 9.4306 3.41142 9.46 3.54078 9.5188C3.67012 9.5776 3.78478 9.65698 3.88474 9.75693L5.87796 11.7325L8.65613 14.8812L8.0123 15.2515L7.89764 12.1911V1.73111C7.89764 1.39597 7.9976 1.1255 8.19751 0.919709C8.4033 0.713919 8.66789 0.611023 8.99127 0.611023Z" fill="black"/>
</g>
<defs>
<clipPath id="clip0_39_285">
<rect width="17" height="17" fill="white" transform="translate(0.5 0.5)"/>
</clipPath>
</defs>
</svg>
