<svg width="19" height="23" viewBox="0 0 19 23" fill="none" xmlns="http://www.w3.org/2000/svg">
<path d="M9.87109 0.476562C10.1758 0.476562 10.4258 0.574219 10.6211 0.769531C10.8164 0.957031 10.9141 1.20312 10.9141 1.50781V16.9414L10.7969 20.4336L10.1289 20.1992L14.3359 15.5938L17.0078 12.9688C17.1016 12.875 17.2109 12.8047 17.3359 12.7578C17.4688 12.7109 17.6055 12.6875 17.7461 12.6875C18.0352 12.6875 18.2734 12.7852 18.4609 12.9805C18.6562 13.1758 18.7539 13.418 18.7539 13.707C18.7539 13.9883 18.6484 14.2422 18.4375 14.4688L10.6562 22.2617C10.5469 22.3789 10.4258 22.4648 10.293 22.5195C10.1602 22.582 10.0195 22.6133 9.87109 22.6133C9.73047 22.6133 9.59375 22.582 9.46094 22.5195C9.32812 22.4648 9.20312 22.3789 9.08594 22.2617L1.31641 14.4688C1.09766 14.2422 0.988281 13.9883 0.988281 13.707C0.988281 13.418 1.08203 13.1758 1.26953 12.9805C1.46484 12.7852 1.70703 12.6875 1.99609 12.6875C2.13672 12.6875 2.26953 12.7109 2.39453 12.7578C2.52734 12.8047 2.64062 12.875 2.73438 12.9688L5.40625 15.5938L9.60156 20.1992L8.94531 20.4336L8.82812 16.9414V1.50781C8.82812 1.20312 8.92578 0.957031 9.12109 0.769531C9.31641 0.574219 9.56641 0.476562 9.87109 0.476562Z" fill="black"/>
</svg>
