<svg width="12" height="13" viewBox="0 0 12 13" fill="none" xmlns="http://www.w3.org/2000/svg">
<path d="M6.02539 12.7461C5.20117 12.7461 4.42773 12.5898 3.70508 12.2773C2.98242 11.9688 2.34766 11.541 1.80078 10.9941C1.25391 10.4473 0.824219 9.8125 0.511719 9.08984C0.203125 8.36719 0.0488281 7.59375 0.0488281 6.76953C0.0488281 5.94531 0.203125 5.17188 0.511719 4.44922C0.824219 3.72656 1.25391 3.0918 1.80078 2.54492C2.34766 1.99414 2.98242 1.56445 3.70508 1.25586C4.42773 0.947266 5.20117 0.792969 6.02539 0.792969C6.84961 0.792969 7.62305 0.947266 8.3457 1.25586C9.06836 1.56445 9.70312 1.99414 10.25 2.54492C10.7969 3.0918 11.2246 3.72656 11.5332 4.44922C11.8457 5.17188 12.002 5.94531 12.002 6.76953C12.002 7.59375 11.8457 8.36719 11.5332 9.08984C11.2246 9.8125 10.7969 10.4473 10.25 10.9941C9.70312 11.541 9.06836 11.9688 8.3457 12.2773C7.62305 12.5898 6.84961 12.7461 6.02539 12.7461ZM6.02539 11.75C6.71289 11.75 7.35742 11.6211 7.95898 11.3633C8.56055 11.1055 9.08984 10.748 9.54688 10.291C10.0039 9.83398 10.3613 9.30469 10.6191 8.70312C10.877 8.10156 11.0059 7.45703 11.0059 6.76953C11.0059 6.08203 10.877 5.4375 10.6191 4.83594C10.3613 4.23047 10.0039 3.70117 9.54688 3.24805C9.08984 2.79102 8.56055 2.43359 7.95898 2.17578C7.35742 1.91797 6.71289 1.78906 6.02539 1.78906C5.33789 1.78906 4.69336 1.91797 4.0918 2.17578C3.49023 2.43359 2.96094 2.79102 2.50391 3.24805C2.04688 3.70117 1.68945 4.23047 1.43164 4.83594C1.17383 5.4375 1.04492 6.08203 1.04492 6.76953C1.04492 7.45703 1.17383 8.10156 1.43164 8.70312C1.68945 9.30469 2.04688 9.83398 2.50391 10.291C2.96094 10.748 3.49023 11.1055 4.0918 11.3633C4.69336 11.6211 5.33789 11.75 6.02539 11.75ZM10.0332 10.6309C9.67773 10.9785 9.25977 11.2754 8.7793 11.5215C8.30273 11.7676 7.82031 11.9551 7.33203 12.084C6.84375 12.2168 6.4082 12.2832 6.02539 12.2832C5.64648 12.2832 5.21094 12.2168 4.71875 12.084C4.23047 11.9551 3.74609 11.7676 3.26562 11.5215C2.78516 11.2754 2.36914 10.9785 2.01758 10.6309L2.03516 10.5605C2.13281 10.2754 2.36133 9.99414 2.7207 9.7168C3.08008 9.43945 3.54102 9.21094 4.10352 9.03125C4.66992 8.85156 5.31055 8.76172 6.02539 8.76172C6.74414 8.76172 7.38477 8.85156 7.94727 9.03125C8.51367 9.21094 8.97461 9.43945 9.33008 9.7168C9.68945 9.99414 9.91797 10.2773 10.0156 10.5664L10.0332 10.6309ZM6.02539 7.76562C5.65039 7.76172 5.31055 7.66406 5.00586 7.47266C4.70508 7.27734 4.46484 7.01367 4.28516 6.68164C4.10938 6.34961 4.01953 5.97461 4.01562 5.55664C4.01172 5.16211 4.09961 4.80078 4.2793 4.47266C4.45898 4.14453 4.70117 3.88281 5.00586 3.6875C5.31055 3.48828 5.65039 3.38867 6.02539 3.38867C6.40039 3.38867 6.73828 3.48828 7.03906 3.6875C7.34375 3.88281 7.58594 4.14453 7.76562 4.47266C7.94531 4.80078 8.03516 5.16211 8.03516 5.55664C8.03516 5.97461 7.94531 6.35156 7.76562 6.6875C7.58984 7.02344 7.34961 7.28906 7.04492 7.48438C6.74023 7.67578 6.40039 7.76953 6.02539 7.76562Z" fill="black" fill-opacity="0.5"/>
</svg>
