<svg width="35" height="35" viewBox="0 0 35 35" fill="none" xmlns="http://www.w3.org/2000/svg">
<g clip-path="url(#clip0_462_2581)">
<path d="M0 32.0555C1.02941 32.0555 2.57353 29.8938 4.375 29.585C5.40441 29.585 6.17647 31.7467 8.75 32.0555C10.5515 32.0555 11.3235 29.8938 13.125 29.8938C14.9265 29.8938 15.6985 32.0555 17.5 32.0555C19.3015 32.0555 20.0735 29.8938 21.875 29.8938C23.6765 29.8938 24.4485 32.0555 26.25 32.0555C28.0515 32.0555 28.8235 29.8938 30.625 29.8938C32.4265 29.8938 33.1985 32.0555 35 32.0555" stroke="url(#paint0_linear_462_2581)" stroke-width="1.5" stroke-linecap="round" stroke-linejoin="round"/>
<path d="M3.51852 29.9027L2.33984 27.6483L32.7075 25.6924C30.3193 27.8644 27.2516 29.6247 24.1479 31.0659" stroke="url(#paint1_linear_462_2581)" stroke-width="1.5" stroke-linecap="round" stroke-linejoin="round"/>
<path d="M14.4297 6.64844C19.5973 8.22858 26.8238 15.8617 29.2841 24.0661C27.9356 23.5359 26.9267 22.9955 25.0326 23.4793C23.2003 16.8139 19.9216 10.447 14.4297 6.64844Z" stroke="url(#paint2_linear_462_2581)" stroke-width="1.5" stroke-linecap="round" stroke-linejoin="round"/>
<path d="M4.82275 3C11.4419 5.83088 20.5213 13.711 22.1889 24.2059C14.5558 21.1279 8.74481 22.7699 4.69922 25.2662C10.8705 17.4221 8.10143 8.50221 4.82275 3Z" stroke="url(#paint3_linear_462_2581)" stroke-width="1.5" stroke-linecap="round" stroke-linejoin="round"/>
</g>
<defs>
<linearGradient id="paint0_linear_462_2581" x1="17.5" y1="29.585" x2="17.5" y2="32.0555" gradientUnits="userSpaceOnUse">
<stop stop-color="#FE6B72"/>
<stop offset="1" stop-color="#FE7EC9"/>
</linearGradient>
<linearGradient id="paint1_linear_462_2581" x1="17.5237" y1="25.6924" x2="17.5237" y2="31.0659" gradientUnits="userSpaceOnUse">
<stop stop-color="#FE6B72"/>
<stop offset="1" stop-color="#FE7EC9"/>
</linearGradient>
<linearGradient id="paint2_linear_462_2581" x1="21.8569" y1="6.64844" x2="21.8569" y2="24.0661" gradientUnits="userSpaceOnUse">
<stop stop-color="#FE6B72"/>
<stop offset="1" stop-color="#FE7EC9"/>
</linearGradient>
<linearGradient id="paint3_linear_462_2581" x1="13.4441" y1="3" x2="13.4441" y2="25.2662" gradientUnits="userSpaceOnUse">
<stop stop-color="#FE6B72"/>
<stop offset="1" stop-color="#FE7EC9"/>
</linearGradient>
<clipPath id="clip0_462_2581">
<rect width="35" height="35" fill="white"/>
</clipPath>
</defs>
</svg>
