<svg width="30" height="29" viewBox="0 0 30 29" fill="none" xmlns="http://www.w3.org/2000/svg">
<path d="M15.2559 28.6621C15.0117 28.6621 14.7969 28.5791 14.6113 28.4131C14.4355 28.2568 14.3281 28.0518 14.2891 27.7979C14.0742 26.0889 13.8447 24.624 13.6006 23.4033C13.3662 22.1729 13.0732 21.1377 12.7217 20.2979C12.3701 19.458 11.916 18.7646 11.3594 18.2178C10.8125 17.6611 10.1191 17.2168 9.2793 16.8848C8.43945 16.543 7.41406 16.2598 6.20312 16.0352C5.00195 15.8008 3.56641 15.5762 1.89648 15.3613C1.63281 15.332 1.41309 15.2344 1.2373 15.0684C1.07129 14.8926 0.988281 14.6777 0.988281 14.4238C0.988281 14.1699 1.07129 13.9551 1.2373 13.7793C1.41309 13.6035 1.63281 13.501 1.89648 13.4717C3.89844 13.2666 5.57812 13.0322 6.93555 12.7686C8.29297 12.4951 9.39648 12.1094 10.2461 11.6113C11.1055 11.1133 11.7891 10.4297 12.2969 9.56055C12.8047 8.69141 13.2051 7.56836 13.498 6.19141C13.791 4.80469 14.0547 3.09082 14.2891 1.0498C14.3281 0.786133 14.4355 0.576172 14.6113 0.419922C14.7969 0.263672 15.0117 0.185547 15.2559 0.185547C15.5098 0.185547 15.7246 0.263672 15.9004 0.419922C16.0762 0.576172 16.1836 0.786133 16.2227 1.0498C16.457 3.09082 16.7207 4.80469 17.0137 6.19141C17.3066 7.56836 17.7021 8.69141 18.2002 9.56055C18.708 10.4297 19.3916 11.1133 20.251 11.6113C21.1104 12.1094 22.2188 12.4951 23.5762 12.7686C24.9336 13.0322 26.6133 13.2666 28.6152 13.4717C28.8789 13.501 29.0937 13.6035 29.2598 13.7793C29.4355 13.9551 29.5234 14.1699 29.5234 14.4238C29.5234 14.6777 29.4355 14.8926 29.2598 15.0684C29.0937 15.2441 28.8789 15.3418 28.6152 15.3613C26.6133 15.5664 24.9336 15.8057 23.5762 16.0791C22.2188 16.3525 21.1104 16.7383 20.251 17.2363C19.3916 17.7344 18.708 18.418 18.2002 19.2871C17.7021 20.1562 17.3066 21.2793 17.0137 22.6562C16.7207 24.0332 16.457 25.7471 16.2227 27.7979C16.1836 28.0518 16.0762 28.2568 15.9004 28.4131C15.7246 28.5791 15.5098 28.6621 15.2559 28.6621Z" fill="black"/>
</svg>
