<svg width="30" height="29" viewBox="0 0 30 29" fill="none" xmlns="http://www.w3.org/2000/svg">
<path d="M14.8311 2.85156C14.46 2.85156 14.1475 2.72461 13.8936 2.4707C13.6396 2.2168 13.5127 1.9043 13.5127 1.5332C13.5127 1.17187 13.6396 0.864258 13.8936 0.610352C14.1475 0.34668 14.46 0.214844 14.8311 0.214844C15.1924 0.214844 15.5 0.34668 15.7539 0.610352C16.0176 0.864258 16.1494 1.17187 16.1494 1.5332C16.1494 1.9043 16.0176 2.2168 15.7539 2.4707C15.5 2.72461 15.1924 2.85156 14.8311 2.85156ZM23.9424 6.63086C23.5713 6.63086 23.2588 6.50391 23.0049 6.25C22.751 5.98633 22.624 5.66895 22.624 5.29785C22.624 4.93652 22.751 4.62891 23.0049 4.375C23.2588 4.11133 23.5713 3.97949 23.9424 3.97949C24.3135 3.97949 24.626 4.11133 24.8799 4.375C25.1338 4.62891 25.2607 4.93652 25.2607 5.29785C25.2607 5.66895 25.1338 5.98633 24.8799 6.25C24.626 6.50391 24.3135 6.63086 23.9424 6.63086ZM27.7217 15.7422C27.3506 15.7422 27.0332 15.6152 26.7695 15.3613C26.5156 15.0977 26.3887 14.7852 26.3887 14.4238C26.3887 14.0625 26.5156 13.7549 26.7695 13.501C27.0332 13.2373 27.3506 13.1055 27.7217 13.1055C28.083 13.1055 28.3906 13.2373 28.6445 13.501C28.8984 13.7549 29.0254 14.0625 29.0254 14.4238C29.0254 14.7852 28.8984 15.0977 28.6445 15.3613C28.3906 15.6152 28.083 15.7422 27.7217 15.7422ZM23.9424 24.8682C23.5713 24.8682 23.2588 24.7412 23.0049 24.4873C22.751 24.2236 22.624 23.9111 22.624 23.5498C22.624 23.1787 22.751 22.8662 23.0049 22.6123C23.2588 22.3486 23.5713 22.2168 23.9424 22.2168C24.3135 22.2168 24.626 22.3486 24.8799 22.6123C25.1338 22.8662 25.2607 23.1787 25.2607 23.5498C25.2607 23.9111 25.1338 24.2236 24.8799 24.4873C24.626 24.7412 24.3135 24.8682 23.9424 24.8682ZM14.8311 28.6328C14.46 28.6328 14.1475 28.501 13.8936 28.2373C13.6396 27.9834 13.5127 27.6758 13.5127 27.3145C13.5127 26.9434 13.6396 26.6309 13.8936 26.377C14.1475 26.123 14.46 25.9961 14.8311 25.9961C15.1924 25.9961 15.5 26.123 15.7539 26.377C16.0176 26.6309 16.1494 26.9434 16.1494 27.3145C16.1494 27.6758 16.0176 27.9834 15.7539 28.2373C15.5 28.501 15.1924 28.6328 14.8311 28.6328ZM5.71973 24.8682C5.34863 24.8682 5.03125 24.7412 4.76758 24.4873C4.51367 24.2236 4.38672 23.9111 4.38672 23.5498C4.38672 23.1787 4.51367 22.8662 4.76758 22.6123C5.03125 22.3486 5.34863 22.2168 5.71973 22.2168C6.08105 22.2168 6.38867 22.3486 6.64258 22.6123C6.90625 22.8662 7.03809 23.1787 7.03809 23.5498C7.03809 23.9111 6.90625 24.2236 6.64258 24.4873C6.38867 24.7412 6.08105 24.8682 5.71973 24.8682ZM1.94043 15.7422C1.5791 15.7422 1.2666 15.6152 1.00293 15.3613C0.749023 15.0977 0.62207 14.7852 0.62207 14.4238C0.62207 14.0625 0.749023 13.7549 1.00293 13.501C1.2666 13.2373 1.5791 13.1055 1.94043 13.1055C2.30176 13.1055 2.60938 13.2373 2.86328 13.501C3.12695 13.7549 3.25879 14.0625 3.25879 14.4238C3.25879 14.7852 3.12695 15.0977 2.86328 15.3613C2.60938 15.6152 2.30176 15.7422 1.94043 15.7422ZM5.71973 6.63086C5.34863 6.63086 5.03125 6.50391 4.76758 6.25C4.51367 5.98633 4.38672 5.66895 4.38672 5.29785C4.38672 4.93652 4.51367 4.62891 4.76758 4.375C5.03125 4.11133 5.34863 3.97949 5.71973 3.97949C6.08105 3.97949 6.38867 4.11133 6.64258 4.375C6.90625 4.62891 7.03809 4.93652 7.03809 5.29785C7.03809 5.66895 6.90625 5.98633 6.64258 6.25C6.38867 6.50391 6.08105 6.63086 5.71973 6.63086ZM14.8311 21.6309C13.835 21.6309 12.9023 21.4453 12.0332 21.0742C11.1641 20.7031 10.3975 20.1855 9.7334 19.5215C9.06934 18.8574 8.54688 18.0908 8.16602 17.2217C7.79492 16.3525 7.60938 15.4199 7.60938 14.4238C7.60938 13.4277 7.79492 12.4951 8.16602 11.626C8.54688 10.7568 9.06934 9.99023 9.7334 9.32617C10.3975 8.66211 11.1641 8.14453 12.0332 7.77344C12.9023 7.39258 13.835 7.20215 14.8311 7.20215C15.8271 7.20215 16.7598 7.39258 17.6289 7.77344C18.498 8.14453 19.2598 8.66211 19.9141 9.32617C20.5781 9.99023 21.0957 10.7568 21.4668 11.626C21.8477 12.4951 22.0381 13.4277 22.0381 14.4238C22.0381 15.4199 21.8477 16.3525 21.4668 17.2217C21.0957 18.0908 20.5781 18.8574 19.9141 19.5215C19.2598 20.1855 18.498 20.7031 17.6289 21.0742C16.7598 21.4453 15.8271 21.6309 14.8311 21.6309Z" fill="url(#paint0_linear_485_2650)"/>
<defs>
<linearGradient id="paint0_linear_485_2650" x1="-2" y1="15" x2="32" y2="15" gradientUnits="userSpaceOnUse">
<stop stop-color="#0057FF"/>
<stop offset="1" stop-color="#05FF00"/>
</linearGradient>
</defs>
</svg>
