<svg width="12" height="14" viewBox="0 0 12 14" fill="none" xmlns="http://www.w3.org/2000/svg">
<path d="M6.42383 13.916C6.34961 13.916 6.28516 13.8906 6.23047 13.8398C6.17969 13.793 6.14844 13.7285 6.13672 13.6465C6.04688 13.0059 5.94922 12.4668 5.84375 12.0293C5.74219 11.5957 5.60547 11.2383 5.43359 10.957C5.26172 10.6758 5.03516 10.4512 4.75391 10.2832C4.47656 10.1152 4.12109 9.98047 3.6875 9.87891C3.25781 9.77344 2.72656 9.67969 2.09375 9.59766C2.00781 9.58984 1.93945 9.55859 1.88867 9.50391C1.83789 9.44922 1.8125 9.38281 1.8125 9.30469C1.8125 9.23047 1.83789 9.16602 1.88867 9.11133C1.93945 9.05664 2.00781 9.02539 2.09375 9.01758C2.72656 8.94727 3.25977 8.86328 3.69336 8.76562C4.12695 8.66797 4.48438 8.5332 4.76562 8.36133C5.04688 8.18945 5.27344 7.96094 5.44531 7.67578C5.61719 7.39062 5.75391 7.0293 5.85547 6.5918C5.96094 6.15039 6.05469 5.60742 6.13672 4.96289C6.14844 4.88477 6.17969 4.82227 6.23047 4.77539C6.28516 4.72461 6.34961 4.69922 6.42383 4.69922C6.50195 4.69922 6.56641 4.72461 6.61719 4.77539C6.66797 4.82227 6.70117 4.88477 6.7168 4.96289C6.79883 5.60742 6.89062 6.15039 6.99219 6.5918C7.09766 7.0293 7.23438 7.39062 7.40234 7.67578C7.57422 7.96094 7.80078 8.18945 8.08203 8.36133C8.36328 8.5332 8.7207 8.66797 9.1543 8.76562C9.58789 8.86328 10.123 8.94727 10.7598 9.01758C10.8418 9.02539 10.9082 9.05664 10.959 9.11133C11.0098 9.16602 11.0352 9.23047 11.0352 9.30469C11.0352 9.38281 11.0098 9.44922 10.959 9.50391C10.9082 9.55859 10.8418 9.58984 10.7598 9.59766C10.123 9.66797 9.58789 9.75195 9.1543 9.84961C8.7207 9.94727 8.36328 10.082 8.08203 10.2539C7.80078 10.4219 7.57422 10.6484 7.40234 10.9336C7.23438 11.2188 7.09766 11.582 6.99219 12.0234C6.89062 12.4648 6.79883 13.0059 6.7168 13.6465C6.70117 13.7285 6.66797 13.793 6.61719 13.8398C6.56641 13.8906 6.50195 13.916 6.42383 13.916ZM2.45117 7.43555C2.33398 7.43555 2.26758 7.37109 2.25195 7.24219C2.20508 6.85156 2.1543 6.54492 2.09961 6.32227C2.04883 6.09961 1.96484 5.93359 1.84766 5.82422C1.73438 5.71094 1.5625 5.625 1.33203 5.56641C1.10547 5.50781 0.792969 5.44531 0.394531 5.37891C0.261719 5.35938 0.195312 5.29297 0.195312 5.17969C0.195312 5.07031 0.253906 5.00586 0.371094 4.98633C0.773438 4.9082 1.08984 4.83984 1.32031 4.78125C1.55078 4.71875 1.72461 4.63281 1.8418 4.52344C1.95898 4.41406 2.04492 4.25195 2.09961 4.03711C2.1543 3.81836 2.20508 3.51367 2.25195 3.12305C2.26758 2.99414 2.33398 2.92969 2.45117 2.92969C2.56836 2.92969 2.63477 2.99219 2.65039 3.11719C2.70117 3.51172 2.75195 3.82227 2.80273 4.04883C2.85742 4.27539 2.94141 4.44727 3.05469 4.56445C3.17188 4.67773 3.3457 4.76172 3.57617 4.81641C3.80664 4.87109 4.125 4.92773 4.53125 4.98633C4.58203 4.99023 4.62305 5.00977 4.6543 5.04492C4.68945 5.08008 4.70703 5.125 4.70703 5.17969C4.70703 5.28906 4.64844 5.35547 4.53125 5.37891C4.125 5.45703 3.80664 5.52734 3.57617 5.58984C3.34961 5.64844 3.17773 5.73438 3.06055 5.84766C2.94727 5.95703 2.86328 6.12109 2.80859 6.33984C2.75391 6.55859 2.70117 6.86328 2.65039 7.25391C2.64258 7.30469 2.62109 7.34766 2.58594 7.38281C2.55078 7.41797 2.50586 7.43555 2.45117 7.43555ZM5.28711 3.4043C5.21289 3.4043 5.16992 3.36523 5.1582 3.28711C5.11133 3.04883 5.07031 2.86133 5.03516 2.72461C5.00391 2.58789 4.95312 2.48438 4.88281 2.41406C4.81641 2.33984 4.71289 2.28125 4.57227 2.23828C4.43164 2.19531 4.23438 2.15234 3.98047 2.10938C3.90234 2.09375 3.86328 2.04883 3.86328 1.97461C3.86328 1.9043 3.90234 1.86133 3.98047 1.8457C4.23438 1.79883 4.43164 1.75586 4.57227 1.7168C4.71289 1.67383 4.81641 1.61719 4.88281 1.54688C4.95312 1.47266 5.00391 1.36719 5.03516 1.23047C5.07031 1.09375 5.11133 0.90625 5.1582 0.667969C5.16992 0.589844 5.21289 0.550781 5.28711 0.550781C5.35742 0.550781 5.40039 0.589844 5.41602 0.667969C5.45898 0.90625 5.49805 1.09375 5.5332 1.23047C5.56836 1.36719 5.61914 1.47266 5.68555 1.54688C5.75586 1.61719 5.86133 1.67383 6.00195 1.7168C6.14258 1.75586 6.33984 1.79883 6.59375 1.8457C6.67188 1.86133 6.71094 1.9043 6.71094 1.97461C6.71094 2.04883 6.67188 2.09375 6.59375 2.10938C6.33984 2.15234 6.14258 2.19531 6.00195 2.23828C5.86133 2.28125 5.75586 2.33984 5.68555 2.41406C5.61914 2.48438 5.56836 2.58789 5.5332 2.72461C5.49805 2.86133 5.45898 3.04883 5.41602 3.28711C5.40039 3.36523 5.35742 3.4043 5.28711 3.4043Z" fill="white" fill-opacity="0.5"/>
</svg>
