<svg width="12" height="13" viewBox="0 0 12 13" fill="none" xmlns="http://www.w3.org/2000/svg">
<path d="M6.02539 12.752C5.20117 12.752 4.42773 12.5957 3.70508 12.2832C2.98242 11.9746 2.34766 11.5469 1.80078 11C1.25391 10.4492 0.824219 9.81445 0.511719 9.0957C0.203125 8.37305 0.0488281 7.59961 0.0488281 6.77539C0.0488281 5.95117 0.203125 5.17773 0.511719 4.45508C0.824219 3.73242 1.25391 3.09766 1.80078 2.55078C2.34766 2.00391 2.98242 1.57617 3.70508 1.26758C4.42773 0.955078 5.20117 0.798828 6.02539 0.798828C6.84961 0.798828 7.62305 0.955078 8.3457 1.26758C9.06836 1.57617 9.70312 2.00391 10.25 2.55078C10.7969 3.09766 11.2246 3.73242 11.5332 4.45508C11.8457 5.17773 12.002 5.95117 12.002 6.77539C12.002 7.59961 11.8457 8.37305 11.5332 9.0957C11.2246 9.81445 10.7969 10.4492 10.25 11C9.70312 11.5469 9.06836 11.9746 8.3457 12.2832C7.62305 12.5957 6.84961 12.752 6.02539 12.752ZM5.7207 9.19531H9.40625C9.64453 9.19531 9.80859 9.16211 9.89844 9.0957C9.99219 9.0293 10.0391 8.93164 10.0391 8.80273C10.0391 8.54883 9.93945 8.2832 9.74023 8.00586C9.54102 7.72461 9.25586 7.48633 8.88477 7.29102C8.51758 7.0957 8.08008 6.99805 7.57227 6.99805C7.06055 6.99805 6.61914 7.0957 6.24805 7.29102C5.87695 7.48633 5.58984 7.72461 5.38672 8.00586C5.1875 8.2832 5.08789 8.54883 5.08789 8.80273C5.08789 8.93164 5.13477 9.0293 5.22852 9.0957C5.32617 9.16211 5.49023 9.19531 5.7207 9.19531ZM7.57227 6.47656C7.88867 6.47656 8.16211 6.35156 8.39258 6.10156C8.62305 5.84766 8.73828 5.53711 8.73828 5.16992C8.73828 4.80664 8.62109 4.50586 8.38672 4.26758C8.15625 4.02539 7.88477 3.9043 7.57227 3.9043C7.25586 3.9043 6.98047 4.02734 6.74609 4.27344C6.51172 4.51562 6.39453 4.81641 6.39453 5.17578C6.39453 5.53906 6.51172 5.84766 6.74609 6.10156C6.98047 6.35156 7.25586 6.47656 7.57227 6.47656ZM2.53906 9.19531H4.77148C4.67383 9.04688 4.64258 8.86133 4.67773 8.63867C4.7168 8.41211 4.80664 8.18555 4.94727 7.95898C5.08789 7.72852 5.26367 7.5332 5.47461 7.37305C5.31055 7.25977 5.12109 7.16797 4.90625 7.09766C4.69531 7.02344 4.45508 6.98633 4.18555 6.98633C3.74023 6.98633 3.35547 7.08008 3.03125 7.26758C2.71094 7.45117 2.46289 7.68164 2.28711 7.95898C2.11133 8.23242 2.02344 8.50391 2.02344 8.77344C2.02344 8.91016 2.0625 9.01562 2.14062 9.08984C2.22266 9.16016 2.35547 9.19531 2.53906 9.19531ZM4.18555 6.53516C4.45898 6.53516 4.69727 6.42578 4.90039 6.20703C5.10352 5.98828 5.20508 5.71875 5.20508 5.39844C5.20508 5.08594 5.10156 4.82617 4.89453 4.61914C4.69141 4.4082 4.45508 4.30273 4.18555 4.30273C3.91211 4.30273 3.67188 4.41016 3.46484 4.625C3.25781 4.83594 3.1543 5.0957 3.1543 5.4043C3.1543 5.72461 3.25586 5.99414 3.45898 6.21289C3.66602 6.42773 3.9082 6.53516 4.18555 6.53516Z" fill="white" fill-opacity="0.5"/>
</svg>
