<svg width="13" height="14" viewBox="0 0 13 14" fill="none" xmlns="http://www.w3.org/2000/svg">
<path d="M6.83984 13.2148V7.20312L12.3359 4.0625C12.3672 4.17969 12.3828 4.32812 12.3828 4.50781V9.07227C12.3828 9.49805 12.3105 9.8125 12.166 10.0156C12.0254 10.2148 11.8184 10.3926 11.5449 10.5488L6.95703 13.1621C6.9375 13.1738 6.91797 13.1836 6.89844 13.1914C6.87891 13.2031 6.85938 13.2109 6.83984 13.2148ZM6.03711 13.2148C6.01758 13.2109 5.99805 13.2031 5.97852 13.1914C5.96289 13.1836 5.94531 13.1738 5.92578 13.1621L1.33203 10.5488C1.0625 10.3926 0.855469 10.2148 0.710938 10.0156C0.566406 9.8125 0.494141 9.49805 0.494141 9.07227V4.50781C0.494141 4.32812 0.509766 4.17969 0.541016 4.0625L6.03711 7.20312V13.2148ZM6.44141 6.5L0.916016 3.36523C1.00195 3.28711 1.11133 3.21094 1.24414 3.13672L3.39453 1.91211L8.94336 5.08203L6.44141 6.5ZM9.75781 4.61914L4.18555 1.45508L5.375 0.78125C5.73828 0.570312 6.09375 0.464844 6.44141 0.464844C6.78516 0.464844 7.13867 0.570312 7.50195 0.78125L11.6387 3.13672C11.7676 3.21094 11.875 3.28711 11.9609 3.36523L9.75781 4.61914Z" fill="white" fill-opacity="0.5"/>
</svg>
