<svg width="12" height="13" viewBox="0 0 12 13" fill="none" xmlns="http://www.w3.org/2000/svg">
<path d="M6.02539 12.752C5.20117 12.752 4.42773 12.5957 3.70508 12.2832C2.98242 11.9746 2.34766 11.5469 1.80078 11C1.25391 10.4492 0.824219 9.81445 0.511719 9.0957C0.203125 8.37305 0.0488281 7.59961 0.0488281 6.77539C0.0488281 5.95117 0.203125 5.17773 0.511719 4.45508C0.824219 3.73242 1.25391 3.09766 1.80078 2.55078C2.34766 2.00391 2.98242 1.57617 3.70508 1.26758C4.42773 0.955078 5.20117 0.798828 6.02539 0.798828C6.84961 0.798828 7.62305 0.955078 8.3457 1.26758C9.06836 1.57617 9.70312 2.00391 10.25 2.55078C10.7969 3.09766 11.2246 3.73242 11.5332 4.45508C11.8457 5.17773 12.002 5.95117 12.002 6.77539C12.002 7.59961 11.8457 8.37305 11.5332 9.0957C11.2246 9.81445 10.7969 10.4492 10.25 11C9.70312 11.5469 9.06836 11.9746 8.3457 12.2832C7.62305 12.5957 6.84961 12.752 6.02539 12.752ZM4.0918 9.39453L8.04688 5.44531L7.33203 4.73047L3.38281 8.67383L3.04297 9.47656C3.00781 9.55078 3.01758 9.61328 3.07227 9.66406C3.12695 9.71484 3.1875 9.72852 3.25391 9.70508L4.0918 9.39453ZM8.41016 5.08789L8.85547 4.64844C8.95312 4.54688 9.00391 4.44336 9.00781 4.33789C9.01562 4.22852 8.97266 4.12891 8.87891 4.03906L8.74414 3.89844C8.65039 3.80859 8.55078 3.76758 8.44531 3.77539C8.33984 3.7832 8.23828 3.83398 8.14062 3.92773L7.69531 4.36719L8.41016 5.08789Z" fill="white" fill-opacity="0.5"/>
</svg>
