<svg width="49" height="24" viewBox="0 0 49 24" fill="none" xmlns="http://www.w3.org/2000/svg">
<path d="M24.0381 18.752C23.4717 18.752 22.9004 18.9082 22.3242 19.2207C21.748 19.5234 21.1377 19.9043 20.4932 20.3633C19.8584 20.8223 19.165 21.2812 18.4131 21.7402C17.6709 22.1992 16.8506 22.585 15.9521 22.8975C15.0635 23.21 14.0723 23.3662 12.9785 23.3662C11.6602 23.3662 10.4395 23.0879 9.31641 22.5312C8.19336 21.9746 7.21191 21.1934 6.37207 20.1875C5.54199 19.1719 4.89258 17.9902 4.42383 16.6426C3.96484 15.2949 3.73535 13.8301 3.73535 12.248C3.73535 10.1875 4.07715 8.46875 4.76074 7.0918C5.44434 5.70508 6.40625 4.5918 7.64648 3.75195C8.88672 2.91211 10.3516 2.27734 12.041 1.84766C13.7305 1.41797 15.5908 1.13477 17.6221 0.998047C19.6533 0.851562 21.792 0.77832 24.0381 0.77832C26.2744 0.77832 28.4033 0.851562 30.4248 0.998047C32.4561 1.13477 34.3164 1.41797 36.0059 1.84766C37.7051 2.26758 39.1748 2.89746 40.415 3.7373C41.6553 4.57715 42.6123 5.69043 43.2861 7.07715C43.9697 8.4541 44.3115 10.1777 44.3115 12.248C44.3115 13.8301 44.082 15.2949 43.623 16.6426C43.1641 17.9902 42.5146 19.1719 41.6748 20.1875C40.835 21.1934 39.8535 21.9746 38.7305 22.5312C37.6074 23.0879 36.3867 23.3662 35.0684 23.3662C33.9746 23.3662 32.9785 23.21 32.0801 22.8975C31.1914 22.585 30.3711 22.1992 29.6191 21.7402C28.877 21.2812 28.1836 20.8223 27.5391 20.3633C26.9043 19.9043 26.2988 19.5234 25.7227 19.2207C25.1465 18.9082 24.585 18.752 24.0381 18.752Z" fill="url(#paint0_linear_485_2667)" fill-opacity="0.5"/>
<path d="M24.0381 18.752C23.4717 18.752 22.9004 18.9082 22.3242 19.2207C21.748 19.5234 21.1377 19.9043 20.4932 20.3633C19.8584 20.8223 19.165 21.2812 18.4131 21.7402C17.6709 22.1992 16.8506 22.585 15.9521 22.8975C15.0635 23.21 14.0723 23.3662 12.9785 23.3662C11.6602 23.3662 10.4395 23.0879 9.31641 22.5312C8.19336 21.9746 7.21191 21.1934 6.37207 20.1875C5.54199 19.1719 4.89258 17.9902 4.42383 16.6426C3.96484 15.2949 3.73535 13.8301 3.73535 12.248C3.73535 10.1875 4.07715 8.46875 4.76074 7.0918C5.44434 5.70508 6.40625 4.5918 7.64648 3.75195C8.88672 2.91211 10.3516 2.27734 12.041 1.84766C13.7305 1.41797 15.5908 1.13477 17.6221 0.998047C19.6533 0.851562 21.792 0.77832 24.0381 0.77832C26.2744 0.77832 28.4033 0.851562 30.4248 0.998047C32.4561 1.13477 34.3164 1.41797 36.0059 1.84766C37.7051 2.26758 39.1748 2.89746 40.415 3.7373C41.6553 4.57715 42.6123 5.69043 43.2861 7.07715C43.9697 8.4541 44.3115 10.1777 44.3115 12.248C44.3115 13.8301 44.082 15.2949 43.623 16.6426C43.1641 17.9902 42.5146 19.1719 41.6748 20.1875C40.835 21.1934 39.8535 21.9746 38.7305 22.5312C37.6074 23.0879 36.3867 23.3662 35.0684 23.3662C33.9746 23.3662 32.9785 23.21 32.0801 22.8975C31.1914 22.585 30.3711 22.1992 29.6191 21.7402C28.877 21.2812 28.1836 20.8223 27.5391 20.3633C26.9043 19.9043 26.2988 19.5234 25.7227 19.2207C25.1465 18.9082 24.585 18.752 24.0381 18.752ZM24.0381 16.9502C24.7998 16.9502 25.5127 17.1064 26.1768 17.4189C26.8506 17.7217 27.5049 18.1025 28.1396 18.5615C28.7744 19.0205 29.4336 19.4795 30.1172 19.9385C30.8008 20.3975 31.543 20.7832 32.3438 21.0957C33.1543 21.4082 34.0625 21.5645 35.0684 21.5645C36.5527 21.5645 37.8516 21.1787 38.9648 20.4072C40.0879 19.6357 40.957 18.5566 41.5723 17.1699C42.1973 15.7734 42.5098 14.1328 42.5098 12.248C42.5098 10.5 42.2217 9.04004 41.6455 7.86816C41.0791 6.69629 40.2588 5.75879 39.1846 5.05566C38.1104 4.35254 36.8115 3.8252 35.2881 3.47363C33.7744 3.1123 32.0703 2.87305 30.1758 2.75586C28.2812 2.63867 26.2354 2.58008 24.0381 2.58008C21.8213 2.58008 19.7656 2.63867 17.8711 2.75586C15.9766 2.87305 14.2676 3.1123 12.7441 3.47363C11.2305 3.8252 9.93652 4.35254 8.8623 5.05566C7.78809 5.75879 6.96289 6.69629 6.38672 7.86816C5.82031 9.04004 5.53711 10.5 5.53711 12.248C5.53711 14.1328 5.84473 15.7734 6.45996 17.1699C7.08496 18.5566 7.95898 19.6357 9.08203 20.4072C10.2051 21.1787 11.5039 21.5645 12.9785 21.5645C13.9844 21.5645 14.8877 21.4082 15.6885 21.0957C16.499 20.7832 17.2461 20.3975 17.9297 19.9385C18.6133 19.4795 19.2725 19.0205 19.9072 18.5615C20.542 18.1025 21.1914 17.7217 21.8555 17.4189C22.5293 17.1064 23.2568 16.9502 24.0381 16.9502Z" fill="white" fill-opacity="0.5"/>
<defs>
<linearGradient id="paint0_linear_485_2667" x1="0" y1="2" x2="49" y2="23" gradientUnits="userSpaceOnUse">
<stop stop-color="#FF0000"/>
<stop offset="1" stop-color="#FF8A00"/>
</linearGradient>
</defs>
</svg>
